<?xml version="1.0" encoding="utf-8"?>
<!-- Generator: Adobe Illustrator 14.0.0, SVG Export Plug-In . SVG Version: 6.00 Build 43363)  -->
<!DOCTYPE svg PUBLIC "-//W3C//DTD SVG 1.1//EN" "http://www.w3.org/Graphics/SVG/1.1/DTD/svg11.dtd">
<svg version="1.1" id="Laag_1" xmlns="http://www.w3.org/2000/svg" xmlns:xlink="http://www.w3.org/1999/xlink" x="0px" y="0px"
	 width="800px" height="800px" viewBox="0 0 800 800" enable-background="new 0 0 800 800" xml:space="preserve">
<g>
	<g>
		<g>
			<path fill="#ED3237" d="M490.105,166.064c0,0,14.825,29.061-26.682,26.286c0,0-14.034,0.992-5.931,8.699
				c0,0,15.415,25.1,55.146,9.879c0,0,8.498-41.299,20.75-74.307c0,0,14.229-47.043,11.855-57.713c0,0-4.745,9.879-18.974,8.11
				c-14.229-1.783-20.16,2.171-20.16,2.171L490.105,166.064z"/>
		</g>
		<g>
			<path fill="#ED3237" d="M488.745,216.271c-21.501,0-30.964-13.974-31.594-14.939c-2.186-2.091-3.003-3.941-2.446-5.509
				c1.206-3.338,8.384-3.887,8.686-3.907c1.903,0.127,3.68,0.181,5.349,0.181c11.092,0,18.351-2.681,21.595-7.962
				c4.577-7.479-0.57-17.761-0.624-17.868l-0.066-0.134l0.033-0.154l16.045-77.055l0.147-0.101
				c0.168-0.114,4.169-2.708,13.391-2.708c2.226,0,4.604,0.154,7.064,0.462c1.119,0.141,2.226,0.214,3.277,0.214
				c11.239,0,15.207-7.989,15.248-8.069l0.549-1.146l0.275,1.24c2.365,10.663-11.28,56.003-11.863,57.934
				c-12.11,32.62-20.663,73.858-20.743,74.274l-0.054,0.234l-0.221,0.087C504.254,214.615,496.164,216.271,488.745,216.271
				L488.745,216.271z M463.397,192.793c-1.863,0.134-7.024,0.999-7.861,3.324c-0.437,1.22,0.321,2.775,2.265,4.611l0.067,0.094
				c0.094,0.147,9.229,14.57,30.877,14.57c7.252,0,15.16-1.608,23.512-4.785c0.717-3.418,9.074-42.773,20.716-74.14
				c0.135-0.429,13.244-43.973,12.024-56.298c-1.575,2.292-6.153,7.5-15.396,7.5c-1.086,0-2.231-0.074-3.385-0.221
				c-2.426-0.301-4.765-0.456-6.957-0.456c-7.969,0-11.963,2.024-12.754,2.473l-15.938,76.545
				c0.649,1.341,5.106,11.085,0.509,18.579C487.163,190.983,477.813,193.745,463.397,192.793L463.397,192.793z"/>
		</g>
	</g>
	<g>
		<path fill="#FFFFFF" d="M495.836,138.559l-5.73,27.506c0,0,14.825,29.061-26.682,26.286c0,0-14.034,0.992-5.931,8.699
			c0,0,15.415,25.1,55.146,9.879c0,0,8.498-41.299,20.75-74.307L495.836,138.559z"/>
		<path fill="#ED3237" d="M488.745,216.271c-21.501,0-30.964-13.974-31.594-14.939c-2.186-2.091-3.003-3.941-2.446-5.509
			c1.206-3.338,8.384-3.887,8.686-3.907c1.903,0.127,3.68,0.181,5.349,0.181c11.085,0,18.351-2.674,21.588-7.962
			c4.584-7.473-0.563-17.761-0.617-17.868l-0.066-0.134l5.831-27.995l38.558-1.991l-0.235,0.63
			c-12.097,32.593-20.649,73.832-20.729,74.247l-0.054,0.234l-0.221,0.087C504.254,214.615,496.164,216.271,488.745,216.271
			L488.745,216.271z M463.397,192.793c-1.863,0.134-7.024,0.999-7.861,3.324c-0.437,1.22,0.321,2.775,2.265,4.611l0.067,0.094
			c0.094,0.147,9.229,14.57,30.877,14.57c7.252,0,15.16-1.608,23.512-4.785c0.71-3.398,8.96-42.25,20.488-73.51l-36.554,1.876
			l-5.623,27.037c0.649,1.341,5.106,11.085,0.509,18.579C487.163,190.983,477.813,193.745,463.397,192.793L463.397,192.793z"/>
	</g>
	<g>
		<g>
			<path fill="#ED3237" d="M300.179,175.065c0,0,3.951,14.886,18.974,14.015c15.02-0.872,25.887,2.936,11.263,9.43
				c0,0-17.985,3.331-12.647,14.598H275.87c0,0-0.396-39.335-7.312-61.667c0,0-18.381-64.917-17.393-68.825
				c0,0,20.75,7.366,41.899,3.612L300.179,175.065z"/>
		</g>
		<g>
			<path fill="#ED3237" d="M318.462,213.543h-43.028l-0.003-0.429c-0.003-0.396-0.476-39.53-7.292-61.54
				c-0.757-2.667-18.404-65.091-17.399-69.066l0.117-0.462l0.456,0.161c0.131,0.041,13.294,4.645,29.081,4.645
				c4.393,0,8.632-0.355,12.593-1.059l0.476-0.087l7.154,89.327c0.024,0.054,3.804,13.646,17.275,13.646l0,0
				c0.402,0,0.814-0.013,1.233-0.04c1.424-0.081,2.832-0.121,4.189-0.121c3.18,0,13.619,0.288,14.413,4.042
				c0.409,1.93-1.991,4.068-7.135,6.354l-0.097,0.033c-0.097,0.014-9.829,1.877-12.566,7.239c-1.016,1.99-0.938,4.256,0.234,6.735
				L318.462,213.543L318.462,213.543z M276.302,212.672h40.79c-1.022-2.507-1.005-4.813,0.057-6.89
				c2.858-5.596,12.258-7.526,13.136-7.694c6.132-2.735,6.759-4.518,6.585-5.349c-0.426-1.997-5.875-3.344-13.555-3.344
				c-1.34,0-2.731,0.04-4.139,0.121c-0.436,0.027-0.861,0.04-1.284,0.04l0,0c-14.158,0-18.099-14.235-18.139-14.376l-7.088-88.442
				c-3.877,0.657-8.002,0.992-12.271,0.992c-14.131,0-26.186-3.653-28.836-4.518c0.154,5.912,12.5,50.722,17.422,68.108
				C275.444,172.19,276.232,208.289,276.302,212.672L276.302,212.672z"/>
		</g>
	</g>
	<g>
		<path fill="#FFFFFF" d="M297.8,145.355l2.379,29.71c0,0,3.951,14.886,18.974,14.015c15.02-0.872,25.887,2.936,11.263,9.43
			c0,0-17.985,3.331-12.647,14.598H275.87c0,0-0.396-39.335-7.312-61.667c0,0-0.969-3.418-2.446-8.727
			C266.112,142.714,290.873,142.62,297.8,145.355z"/>
		<path fill="#ED3237" d="M318.462,213.543h-43.028l-0.003-0.429c-0.003-0.396-0.476-39.53-7.292-61.54
			c-0.003-0.013-0.972-3.431-2.453-8.739l-0.154-0.563h0.892c2.537,0,24.969,0.08,31.537,2.667l0.255,0.107l2.402,29.986
			c0.024,0.054,4.021,14.443,18.508,13.605c1.424-0.081,2.832-0.121,4.189-0.121c3.18,0,13.619,0.288,14.413,4.042
			c0.409,1.93-1.991,4.068-7.135,6.354l-0.097,0.033c-0.097,0.014-9.829,1.877-12.566,7.239c-1.016,1.99-0.938,4.256,0.234,6.735
			L318.462,213.543L318.462,213.543z M276.302,212.672h40.79c-1.022-2.507-1.005-4.813,0.057-6.89
			c2.858-5.596,12.258-7.526,13.136-7.694c6.132-2.735,6.759-4.518,6.585-5.349c-0.426-1.997-5.875-3.344-13.555-3.344
			c-1.34,0-2.731,0.04-4.139,0.121c-15.234,0.891-19.383-14.188-19.423-14.336l-2.369-29.517
			c-6.535-2.373-27.221-2.507-30.696-2.507c1.391,4.987,2.292,8.164,2.292,8.164C275.444,172.19,276.232,208.289,276.302,212.672
			L276.302,212.672z"/>
	</g>
	<g>
		<g>
			<path fill="#ED3237" d="M254.694,40.117l46.322,134.948c0,0,72.544-56.278,189.692-7.5L538.75,43.307
				C538.75,43.307,429.686-49.089,254.694,40.117z"/>
		</g>
		<g>
			<path fill="#ED3237" d="M300.799,175.79L254.155,39.902l0.338-0.174C305.112,13.925,355.13,0.842,403.165,0.842
				c44.489,0,79.052,11.447,100.211,21.044c22.941,10.416,35.528,20.978,35.655,21.085l0.242,0.201l-0.114,0.288l-48.202,124.681
				l-0.416-0.174c-31.647-13.176-62.96-19.852-93.08-19.852c-60.28,0-95.825,27.023-96.177,27.291L300.799,175.79L300.799,175.79z
				 M255.234,40.332l46.004,134.024c4.491-3.251,39.479-27.124,96.224-27.124c30.099,0,61.392,6.648,93,19.751l47.76-123.542
				c-3.854-3.124-53.269-41.728-135.056-41.728C355.378,1.713,305.607,14.716,255.234,40.332L255.234,40.332z"/>
		</g>
	</g>
	<g>
		<path fill="#FFFFFF" d="M277.844,107.555l23.173,67.511c0,0,72.544-56.278,189.692-7.5l23.793-61.54
			C514.502,106.026,412.032,35.707,277.844,107.555z"/>
		<path fill="#ED3237" d="M300.799,175.79l-23.495-68.45l0.332-0.174c40.136-21.487,81.425-32.385,122.717-32.385
			c68.594,0,113.948,30.569,114.397,30.884l0.288,0.188l-24.081,62.29l-0.416-0.174c-31.647-13.176-62.96-19.852-93.08-19.852
			c-60.26,0-95.825,27.023-96.177,27.291L300.799,175.79L300.799,175.79z M278.38,107.769l22.858,66.586
			c4.491-3.251,39.479-27.124,96.224-27.124c30.099,0,61.392,6.648,93,19.751l23.505-60.789
			c-3.968-2.607-48.155-30.535-113.613-30.535C359.319,75.659,318.285,86.456,278.38,107.769L278.38,107.769z"/>
	</g>
	<g>
		<path fill="#FAFDC4" d="M681.085,160.408c0,0-7.406-19.973-8.05-25.12c-0.644-5.161-11.272-32.211-17.07-34.463
			c-5.797-2.258-31.567-9.986-44.456-18.686c0,0,22.875,20.294,31.246,24.798c8.378,4.51,18.364,24.483,29.315,50.575
			c0,0-32.532,26.085-36.078,34.462l-15.141-11.273l1.931,11.273l12.889,10.952c0,0,32.21-40.26,45.414-43.806"/>
	</g>
	<g>
		<path fill="#FAFDC4" d="M556.431,150.743c0,0,0.965,2.259,6.119-11.273c5.154-13.525,12.888-14.812,12.888-14.812
			c-2.258-2.258-2.258-11.273-2.258-11.273S551.599,122.078,556.431,150.743z"/>
	</g>
	<g>
		<path fill="#FAFDC4" d="M667.238,334.021c0,0,16.105-5.797,26.092-5.154c0,0,22.867-39.295,38.008-52.505
			c0,0,27.7,5.656,21.902,33.591c-5.797,27.928-1.293,29.222-9.986,32.124l3.218,32.21c0,0,18.686-30.924,16.755-36.728
			c0,0-0.65-51.212,1.608-55.079c0,0-22.867-13.525-28.986-22.224c0,0-39.624,59.911-48.967,63.135
			C677.546,326.609,667.238,334.021,667.238,334.021z"/>
	</g>
	<g>
		<path fill="#FAFDC4" d="M622.782,485.093c0,0-10.944-38.658,4.188-41.876c0,0,7.092-3.874,7.734-8.378
			c0.644-4.517,2.896-10.629,9.337-9.985c0,0,10.958,3.217,0,11.272c-10.952,8.057,0.972,10.951,0.972,10.951
			s9.986,3.218,15.783-0.643c0,0,3.86,14.168-12.244,11.916C648.553,458.351,627.937,441.273,622.782,485.093z"/>
	</g>
	<g>
		<path fill="#FAFDC4" d="M587.998,538.228c3.692-24.503,37.687-27.05,37.687-27.05s-0.966-7.734-23.189-4.196
			c-22.225,3.553-23.196,30.603-23.196,30.603s-2.574,17.721-8.371,22.868C570.928,560.452,583.923,565.317,587.998,538.228z"/>
	</g>
	<g>
		<path fill="#2E733A" d="M594.017,111.174c7.962-5.147,37.244,1.005,37.244,1.005c-1.22-6.876-21.173-15.08-21.173-15.08
			c-10.528-3.552-16.293-11.193-16.293-11.193s1.327,5.979-4.215,13.854c-5.543,7.868-11.193,18.397-10.309,26.38
			C579.271,126.14,591.785,112.621,594.017,111.174z"/>
	</g>
	<g>
		<g>
			<path fill="#2E733A" d="M603.882,202.927c1.22-26.742-33.698-28.793-33.698-28.793c-1.22-15.964-14.41-14.959-24.61-10.086
				c-10.194,4.879-9.973,15.629-9.973,15.629l-4.88,14.745c0,0-6.876-0.442-9.202,8.505c-2.325,8.954-13.411,20.757-13.411,20.757
				c-0.221,19.289,15.522,16.963,15.522,16.963c8.197-1.448,13.519,28.042,13.519,28.042c12.084-6.876,30.709-22.278,30.709-22.278
				c11.086-6.207,17.734,10.415,17.734,10.415c14.631-18.176,19.396-17.734,19.396-17.734
				C598.781,222.47,602.662,229.668,603.882,202.927z M574.171,195.527c0,0,7.205,6.648,7.205,25.281
				c0,0-7.426-18.042-16.179-19.168c0,0-7.098,4.752-12.969,23.377c0,0-5.436,12.634-8.646,14.631c0,0,3.768-39.241,10.529-43.786
				c0,0-14.409,0.442-27.271,14.41c0,0,7.553-22.265,24.054-23.163c0,0,5.985-9.866,15.743-0.777c0,0,11.307-2.996,25.824,15.187
				C592.462,201.519,578.387,194.536,574.171,195.527z"/>
		</g>
	</g>
	<g>
		<path fill="#2E733A" d="M594.405,261.142c-11.206,12.077,4.27,15.12,4.979,15.12c0.711,0,10.67-2.842,14.759,4.805
			c4.095,7.647,11.206,8.713,11.206,8.713c13.344-2.486,12.097-16.722,12.097-16.722c-18.498,8.19-19.563-5.154-19.563-5.154
			c-9.785,2.138-14.765-11.206-14.765-11.206S595.974,259.453,594.405,261.142z"/>
	</g>
	<g>
		<path fill="none" d="M649.363,280.887"/>
	</g>
	<g>
		<g>
			<path fill="#2E733A" d="M703.43,208.141c0,0-8.002-0.174-10.495,1.427c0,0-4.799-3.559-8.888-9.43
				c-4.095-5.871-8.538-14.222-26.507-14.048c0,0-3.553,3.74-9.424,43.578c0,0-20.763,2.185-29.168,24.898
				c0,0,2.849,4.444,14.229,8.002h16.896l1.957,4.806c0,0-2.948,6.515-2.138,14.403c0,0,17.613-17.07,28.994-17.606
				c11.38-0.536,19.027,2.842,19.027,2.842l-2.486-6.756h11.024c0,0,14.055,5.161,15.65,4.269c0,0,1.427-18.317,4.269-20.81
				C726.371,243.716,746.116,209.75,703.43,208.141z M695.072,242.114l8.002,6.582c-4.979,1.957-14.048,8.72-14.048,8.72
				l-9.785-4.986l-17.606,6.762l9.424-6.582c0,0-1.24-6.4-37.881-0.71c0,0,3.196-8.357,14.938-9.604s28.277-1.072,28.277-1.072
				s1.427-28.458-8.358-41.084c0,0,12.272,5.697,16.012,36.641c0,0,19.919-11.735,29.343-11.387
				C713.39,225.393,695.072,235.714,695.072,242.114z"/>
		</g>
	</g>
	<g>
		<path fill="#2E733A" d="M705.22,405.406c2.238-9.503,31.272-33.524,31.272-33.524c-1.448-1.455-1.053-13.854-1.053-13.854
			c-11.615,2.768-10.69,5.013-10.69,5.013c0,8.049-7.653,8.84-7.653,8.84c-4.089-17.023,5.804-21.119,5.804-21.119v-11.213
			c0,0-6.468,1.052-8.974,1.582c0,0-13.197,12.144-13.197,14.912c0,2.775,3.298,18.478,1.85,21.38c0,0-4.222-1.977-7.922-10.026
			c0,0,0.135-6.34-12.801-7.393l1.193,18.076c0,0,10.556,10.958,13.592,18.351C699.677,403.818,705.22,405.406,705.22,405.406z"/>
	</g>
	<g>
		<path fill="#2E733A" d="M631.18,386.265c0.355-10.677-1.447-17.151-1.447-17.151s7.654,8.706,18.076,11.219
			c10.429,2.507,14.383,2.239,18.344,5.014c0,0-5.805,2.506,7.922,19.53c0,0-5.677,4.092-9.766,4.614
			c-4.095,0.536-13.33,5.282-11.748,10.027C652.561,419.519,630.128,417.937,631.18,386.265z"/>
	</g>
	<g>
		<path fill="#2E733A" d="M731.746,392.471l12.272-2.111l0.925,12.01l-5.416,4.883c0,0,5.938,30.75,15.704,8.043
			c0,0-1.1,9.504-2.769,14.383l-0.268,38.283l-10.288,8.444l-13.592-5.938c0,0,2.372-8.056,0-11.085l5.67-4.437
			c0,0,2.507-18.659-2.507-20.509l-11.347-1.06c0,0,0.522-13.323-1.589-16.366C718.543,417.012,727.651,409.491,731.746,392.471z"/>
	</g>
	<g>
		<path fill="#2E733A" d="M709.569,534.997l2.641-7.533c0,0,20.589-3.298,16.366-29.423l5.805-4.879
			C734.381,493.162,745.07,531.297,709.569,534.997z"/>
	</g>
	<g>
		<path fill="#2E733A" d="M666.548,520.078l9.638-10.026c0,0-14.518,4.356-21.648-5.014l1.06-21.782l-4.887-6.85l-4.745,4.745
			l1.314,22.962c0,0-7.654,5.281-13.593-4.49v-17.158l-2.111-6.059l-3.692,6.059v19.664
			C627.883,502.129,625.905,518.496,666.548,520.078z"/>
	</g>
	<g>
		<g>
			<path fill="#2E733A" d="M725.668,548.08c-30.529,33.792-22.231-43.283-22.231-43.283s-22.492,0.951-32.438,16.125
				c0,0-5.026,11.796-11.28,15.281c0,0-24-9.946-27.076-9.946c0,0,2.459,0.51-2.869,12.198c-5.335,11.702-2.667,31.394-2.667,31.394
				l-13.947-6.26c0,0,2.459,6.876,4.611,37.639c2.157,30.764,20.823,35.589,20.823,35.589c33.846-2.453,43.591-17.332,43.591-17.332
				l5.845,16.3c40.099-20.2,33.738-60.092,33.431-68.604C721.15,558.669,725.668,548.08,725.668,548.08z M669.416,602.971
				c0,0,8.659,3.392,13.271-3.9c0,0,4.719,3.189-11.997,15.589c0,0-20.717,0.925-24.302-1.528c0,0-29.644-16.099-24.818-27.492
				c0,0,2.051-7.413,20.609,14.598c0,0,10.563,10.938,9.128-3.727c0,0-11.796-45.535-8.512-48.913c0,0,5.127-4.115,13.331,41.741
				c0,0,6.574,22.654,13.29-7.386c0,0,8.043-39.797,17.07-39.998c0,0,4.35-1.032-6.36,19.477
				C680.126,561.431,667.318,594.258,669.416,602.971z"/>
		</g>
	</g>
	<g>
		<g>
			<path fill="#2E733A" d="M249.148,190.085l16.655-38.752l-39.697-3.773v-46.298l-31.319,31.527l-4.4,35.931l-7.436-20.113
				l-22.204,28.384l-3.354,14.557c-6.076-32.68,12.989-43.564,30.271-64.308c17.285-20.743,11.105-44.623,11.105-44.623
				c2.198,26.601-20.636,42.632-47.763,71.332c-27.13,28.699-23.464,58.027-23.464,58.027l-32.576,22.097
				c0,0-2.932-5.657,12.781-30.274c15.71-24.61-1.364-43.148-1.364-43.148c0.63,5.764,0.945,28.384-15.921,37.492
				c-16.863,9.115-21.263,46.406-21.263,46.406c-1.256-1.153-19.691-8.7-19.691-8.7c0.211,6.602,8.378,29.959-4.085,51.748
				c-12.466,21.789-6.598,65.152-6.598,65.152l-10.047-6.709c6.189,22.727,0-1.045,3.867,57.083
				C36.508,461.26,58.22,463.94,58.22,463.94c-5.271,159.954,122.995,174.056,122.995,174.056s40.833-50.548,6.937-122.302
				c-33.896-71.754-38.454-56.285-41.825-89.983c0,0-3.17-6.354-5.352-6.354c0,0,2.976-37.456,4.758-39.834l-9.913-7.138
				c3.988-15.026,2.507-28.645,7.433-44.569c4.919-15.918,6.283-29.114,6.283-29.114c39.385-14.665,71.017-60.856,74.998-65.782
				s16.966-26.923,38.859-24.302c21.893,2.621,2.198,55.099,2.198,55.099C303.929,191.653,249.148,190.085,249.148,190.085z
				 M65.672,506.097c0.901-12.238,0.385-31.325,3.995-43.563l8.12,81.98C77.787,544.514,64.768,518.349,65.672,506.097z
				 M181.684,576.872c3.224,3.874,7.734,15.603,6.317,37.64l-15.083-54.261C172.917,560.251,178.46,573.012,181.684,576.872z
				 M105.889,530.332l9.41,40.87l-19.594-36.607C95.705,534.595,96.221,528.925,105.889,530.332z M111.69,592.596
				c-1.98-6.568-12.376-26.286-12.376-26.286s11.085,3.605,15.211,16.501c4.125,12.882,11.085,24.61,13.408,26.42
				C127.933,609.23,114.139,600.719,111.69,592.596z"/>
		</g>
	</g>
	<g>
		<g>
			<g>
				<path fill="#ED3237" d="M663.304,296.71l-198.619-4.538L399.452,81.925l-65.229,210.248l-198.626,4.538l158.313,134.483
					l-57.528,213.049l163.071-127.141l163.071,127.141l-57.531-213.049L663.304,296.71z M470.153,543.08l-34.194-49.274
					c-56.996,12.131-77.588-12.868-77.588-12.868l-36.771,54.783l-19.122-15.08l38.243-60.668l-4.782-6.983l30.153-17.654v21.702
					c32.727,16.541,51.114,2.573,51.114,2.573l-43.759-69.867l-16.548,11.032l-15.811-14.705l2.574-11.4l40.448-26.842
					c30.153-2.942,34.563,5.147,34.563,5.147c-0.737,6.983-25.371,24.637-25.371,24.637l41.919,68.754
					c46.332-62.87-26.843-136.413-26.843-136.413c55.89,24.63,68.396,56.258,71.332,99.645c2.653,39.101-25,69.502-25,69.502
					l34.195,50.735L470.153,543.08z"/>
			</g>
		</g>
	</g>
	<g>
		<g>
			<path fill="#ED3237" d="M564.011,584.901c0,0-5.114,3.673-14.155,9.075l14.202,52.585l-2.077-1.622l-43.866-34.208
				c-30.636,14.235-73.47,28.766-118.663,27.265c-44.542-1.475-87.574-14.65-118.863-27.104l-45.743,35.669l13.488-49.958
				c-10.392-5.107-16.35-8.579-16.35-8.579l-35.756,106.994l12.489-2.842c0,0,85.982,63.845,202.618,65.266
				c116.632,1.421,181.334-62.424,181.334-62.424l13.338,9.356L579.901,595.41L564.011,584.901z M355.147,685.367
				c0,0-9.648,31.5-56.757,16.18l-9.648,25.254l-17.312-7.668l28.38-90.238C299.81,628.895,368.484,638.827,355.147,685.367z
				 M434.323,744.963l-15.328-30.655h-8.512l-3.123,34.396l-20.147-2.319v-96.484h18.733v26.956l7.942,0.992l13.337-32.211
				l21.85,1.702L431.2,684.228l26.956,60.735H434.323z M499.308,731.626l-19.865-98.764l17.023-1.983l29.517,92.798L499.308,731.626
				z"/>
		</g>
	</g>
	<g>
		<path fill="#ED3237" d="M504.422,430.523l156.557-132.989l-196.951-4.49l-0.188-0.603L399.452,84.888l-64.576,208.157
			l-0.633,0.013l-196.317,4.477l156.979,133.35l-0.147,0.536l-56.841,210.517l161.536-125.948l0.54,0.429l160.997,125.52
			l-56.989-211.053L504.422,430.523z M469.938,544.313l-34.368-49.528c-10.208,2.145-19.946,3.217-28.954,3.217
			c-30.692,0-44.794-12.225-48.138-15.644l-36.678,54.65l-20.489-16.166l38.356-60.843l-4.986-7.292l32.288-18.899v22.68
			c10.318,5.147,20.234,7.748,29.479,7.748c10.757,0,17.499-3.606,19.557-4.88l-42.827-68.379l-16.37,10.918l-16.692-15.529
			l2.765-12.238l40.924-27.157l0.218-0.02c4.41-0.429,8.532-0.65,12.251-0.65c19.537,0,23.029,5.999,23.169,6.253l0.134,0.241
			l-0.033,0.275c-0.71,6.742-20.576,21.514-25.069,24.778l40.806,66.938c22.714-31.835,14.276-66.355,3.097-89.826
			c-12.292-25.81-30.441-44.208-30.622-44.382l0.979-1.427c55.836,24.61,68.892,56.66,71.854,100.395
			c2.459,36.232-21.166,65.4-24.771,69.623l34.302,50.896L469.938,544.313z"/>
	</g>
	<g>
		<path fill="#FFF212" d="M127.922,577.422h22.918l26.718,32.09C177.559,609.512,139.708,596.55,127.922,577.422z"/>
	</g>
	<g>
		<path fill="#FFF212" d="M115.61,542.839c0,0,14.407-2.748,19.775-2.092l23.313,26.715l-20.036,0.791L115.61,542.839z"/>
	</g>
	<g>
		<polygon fill="#FFF212" points="161.581,498.055 150.841,514.944 149.269,539.045 161.581,552.141 		"/>
	</g>
	<g>
		<polygon fill="#FFF212" points="142.721,463.605 132.111,483.377 142.721,516.258 		"/>
	</g>
	<g>
		<path fill="#FFF212" d="M94.392,493.336l29.861,3.928l13.753,37.197C138.006,534.461,98.453,517.303,94.392,493.336z"/>
	</g>
	<g>
		<polygon fill="#FFF212" points="82.344,445.656 108.536,458.887 119.803,488.229 89.807,471.46 		"/>
	</g>
	<g>
		<polygon fill="#FFF212" points="117.313,446.313 132.638,427.199 138.006,458.498 122.946,477.224 		"/>
	</g>
	<g>
		<polygon fill="#FFF212" points="82.344,402.96 81.426,434.396 106.05,451.555 104.348,423.258 		"/>
	</g>
	<g>
		<polygon fill="#FFF212" points="108.67,407.025 127.658,384.891 128.576,417.628 113.121,436.891 		"/>
	</g>
	<g>
		<polygon fill="#FFF212" points="128.576,342.976 128.576,370.87 106.05,399.033 106.05,367.988 		"/>
	</g>
	<g>
		<polygon fill="#FFF212" points="39.383,410.296 57.067,423.915 56.41,453.779 41.742,440.952 		"/>
	</g>
	<g>
		<polygon fill="#FFF212" points="43.837,371.004 53.923,387.378 56.279,417.628 40.301,402.96 		"/>
	</g>
	<g>
		<polygon fill="#FFF212" points="54.577,367.465 69.509,355.944 64.53,402.96 		"/>
	</g>
	<g>
		<polygon fill="#FFF212" points="80.903,340.885 97.404,364.195 97.404,399.033 78.939,383.711 		"/>
	</g>
	<g>
		<polygon fill="#FFF212" points="112.206,317.568 123.469,307.347 126.874,330.925 114.039,340.885 		"/>
	</g>
	<g>
		<polygon fill="#FFF212" points="95.571,304.867 105.001,318.613 102.907,352.406 92.036,333.284 		"/>
	</g>
	<g>
		<polygon fill="#FFF212" points="74.355,325.818 77.629,325.295 79.593,305.913 68.46,311.408 63.484,342.976 73.698,337.869 		"/>
	</g>
	<g>
		<polygon fill="#FFF212" points="44.886,313.768 56.279,333.941 54.577,360.308 41.481,331.716 		"/>
	</g>
	<g>
		<polygon fill="#FFF212" points="58.9,270.149 67.281,300.806 62.043,323.07 48.88,296.087 		"/>
	</g>
	<g>
		<polygon fill="#FFF212" points="97.404,256.799 96.75,275.914 73.96,294.385 75.401,277.616 		"/>
	</g>
	<g>
		<polygon fill="#FFF212" points="82.998,214.36 85.682,256.799 72.126,275.592 70.947,251.162 		"/>
	</g>
	<g>
		<polygon fill="#FFF212" points="94.261,247.624 96.489,238.851 116.659,224.052 114.169,233.482 		"/>
	</g>
	<g>
		<polygon fill="#FFF212" points="114.431,262.161 118.097,298.835 108.932,311.02 106.181,272.777 		"/>
	</g>
	<g>
		<polygon fill="#FFF212" points="133.944,234.923 135.781,267.268 122.159,279.714 120.195,244.976 		"/>
	</g>
	<g>
		<polygon fill="#FFF212" points="148.22,267.536 172.713,268.447 131.066,295.564 129.755,284.425 		"/>
	</g>
	<g>
		<polygon fill="#FFF212" points="146.387,259.674 170.619,255.09 189.348,236.491 166.035,236.491 		"/>
	</g>
	<g>
		<polygon fill="#FFF212" points="142.329,245.66 154.771,234.266 153.331,197.464 144.554,206.76 		"/>
	</g>
	<g>
		<polygon fill="#FFF212" points="184.368,208.724 215.802,208.074 199.432,224.836 171.795,224.052 		"/>
	</g>
	<g>
		<polygon fill="#FFF212" points="180.964,160.917 183.323,197.464 162.891,217.236 162.891,179.65 		"/>
	</g>
	<g>
		<polygon fill="#FFF212" points="191.312,198.51 198.513,184.884 234.926,183.055 226.019,197.464 		"/>
	</g>
	<g>
		<polygon fill="#FFF212" points="204.669,175.065 219.863,156.467 253.521,156.467 240.687,172.968 		"/>
	</g>
	<g>
		<polygon fill="#FFF212" points="218.161,123.197 218.161,146.38 195.896,170.086 198.513,141.796 		"/>
	</g>
	<g>
		<polygon fill="#ED3237" points="642.902,658.411 687.459,603.359 694.55,601.362 694.55,611.871 654.537,665.221 644.035,668.049 
					"/>
	</g>
	<g>
		<polygon fill="#ED3237" points="669.416,657.835 678.089,655.288 678.089,672.03 649.142,706.653 638.646,706.653 
			640.067,692.458 		"/>
	</g>
	<g>
		<polygon fill="#ED3237" points="666.742,698.142 666.742,712.605 656.521,729.924 733.998,647.902 733.998,634.712 
			718.959,639.108 		"/>
	</g>
	<g>
		<polygon fill="#ED3237" points="619.914,723.677 632.97,723.677 606.864,596.255 580.753,567.597 569.118,570.8 595.511,600.236 
					"/>
	</g>
	<g>
		<path fill="#ED3237" d="M666.742,744.105l37.74-53.068c0,0,4.081,12.493,66.74,7.386l-61.653,51.366
			C709.569,749.789,674.966,754.319,666.742,744.105z"/>
	</g>
	<g>
		<polygon fill="#ED3237" points="129.256,670.891 139.755,670.891 164.446,696.145 162.744,713.182 129.256,681.386 		"/>
	</g>
	<g>
		<polygon fill="#ED3237" points="108.255,613.292 118.472,614.699 166.148,667.486 166.148,679.684 155.425,677.7 108.255,624.351 
					"/>
	</g>
	<g>
		<polygon fill="#ED3237" points="77.609,639.967 87.542,641.669 132.111,693.316 132.111,713.182 79.026,655.288 		"/>
	</g>
	<g>
		<path fill="#ED3237" d="M41.853,696.721c0,0,19.58,11.354,40.297,7.373c20.713-3.968,27.811-1.984,27.811-1.984
			s11.917,38.538,36.889,42.572C146.85,744.682,97.471,775.043,41.853,696.721z"/>
	</g>
	<g>
		<path fill="#ED3237" d="M182.324,722.256l-9.933-4.249c0,0,24.406-91.096,31.785-106.712c0,0,11.065-33.311,24.403-43.042
			c0,0,16.46-2.922,0,15.241c0,0-9.648,15.321-19.014,44.261C200.202,656.709,182.324,722.256,182.324,722.256z"/>
	</g>
	<g>
		<path fill="#2E733A" d="M439.906,764.386l12.634-2.546c0,0,26.111,18.297,46.265,17.023l-22.848,13.913L439.906,764.386z"/>
	</g>
	<g>
		<polygon fill="#2E733A" points="418.332,766.089 428.693,764.533 461.199,794.761 445.442,799.157 		"/>
	</g>
	<g>
		<polygon fill="#2E733A" points="398.322,765.807 407.407,765.807 386.969,796.034 369.798,796.034 		"/>
	</g>
	<g>
		<polygon fill="#2E733A" points="388.601,763.823 377.462,761.84 326.227,789.372 344.393,799.157 		"/>
	</g>
	<g>
		<path fill="#ED3237" d="M334.467,679.161c-8.747,19.021-28.263,4.115-28.263,4.115l8.016-27.318
			C314.22,655.958,341.746,663.344,334.467,679.161z"/>
	</g>
</g>
</svg>
